<?xml version="1.0" standalone="no"?>
<!DOCTYPE svg PUBLIC "-//W3C//DTD SVG 20010904//EN"
 "http://www.w3.org/TR/2001/REC-SVG-20010904/DTD/svg10.dtd">
<svg version="1.0" xmlns="http://www.w3.org/2000/svg"
 width="1600.000000pt" height="1600.000000pt" viewBox="0 0 1600.000000 1600.000000"
 preserveAspectRatio="xMidYMid meet">

<g transform="translate(0.000000,1600.000000) scale(0.100000,-0.100000)"
fill="#000000" stroke="none">
<path d="M11230 11719 c-22 -18 -22 -19 -3 -10 12 6 25 16 28 21 9 15 3 12
-25 -11z"/>
<path d="M11172 11682 c-13 -16 -20 -20 -16 -9 3 9 4 17 1 17 -3 0 -45 -20
-94 -44 l-88 -45 35 -7 c29 -6 31 -9 15 -15 -13 -5 -15 -8 -5 -8 21 -1 51 24
42 34 -4 5 -1 5 6 1 7 -4 25 3 43 16 62 48 94 77 89 81 -3 3 -15 -7 -28 -21z"/>
<path d="M4842 11671 c6 -11 18 -17 26 -13 10 3 13 1 8 -6 -4 -7 -3 -12 2 -12
4 0 28 -17 52 -37 24 -21 41 -32 36 -25 -4 8 -1 12 9 12 9 0 14 -4 11 -8 -3
-5 2 -9 10 -9 10 0 11 4 4 11 -16 16 -12 26 8 20 9 -3 -8 8 -38 24 -30 17 -58
28 -62 25 -5 -2 -8 0 -8 5 0 9 -43 32 -61 32 -5 0 -4 -8 3 -19z m103 -41 c3
-6 -1 -7 -9 -4 -18 7 -21 14 -7 14 6 0 13 -4 16 -10z"/>
<path d="M5023 11583 c4 -3 1 -13 -6 -22 -11 -14 -10 -14 5 -2 16 12 16 31 1
31 -4 0 -3 -3 0 -7z"/>
<path d="M10866 11539 c4 -7 0 -9 -13 -5 -11 4 -27 -1 -39 -11 -10 -10 -28
-20 -39 -21 -11 -2 -31 -12 -46 -23 -14 -10 -29 -16 -33 -12 -3 3 -6 1 -6 -5
0 -6 -14 -13 -30 -17 -18 -4 -27 -11 -23 -18 4 -7 0 -8 -11 -4 -10 4 -15 3
-11 -3 3 -5 -7 -16 -22 -25 -20 -11 -22 -14 -7 -10 12 3 28 0 36 -8 7 -7 20
-11 28 -9 13 5 13 3 1 -12 -12 -14 -12 -16 3 -10 11 4 16 2 14 -6 -7 -29 24
-18 91 32 39 29 89 66 112 82 l41 29 -21 16 c-15 11 -20 23 -15 34 3 10 1 17
-6 17 -6 0 -8 -5 -4 -11z m-11 -19 c3 -5 2 -10 -4 -10 -5 0 -13 5 -16 10 -3 6
-2 10 4 10 5 0 13 -4 16 -10z m-218 -124 c0 -8 -6 -12 -15 -9 -11 5 -11 7 0
14 7 5 13 9 14 9 0 0 1 -6 1 -14z"/>
<path d="M10900 11542 c7 -3 5 -8 -5 -16 -15 -11 -14 -13 9 -24 18 -8 27 -8
32 0 5 7 3 8 -5 3 -9 -5 -12 -2 -9 11 2 11 13 20 27 22 16 3 21 0 16 -9 -5 -8
-4 -10 4 -5 21 13 1 25 -40 23 -23 -1 -36 -3 -29 -5z"/>
<path d="M5105 11491 c-3 -5 -2 -12 3 -15 5 -3 9 1 9 9 0 17 -3 19 -12 6z"/>
<path d="M5165 11490 c-3 -5 -12 -7 -20 -3 -10 3 -15 -1 -15 -15 0 -27 15 -36
37 -22 16 11 16 11 1 6 -10 -3 -20 -1 -23 3 -2 5 5 11 17 14 26 7 38 -7 32
-39 -3 -17 6 -30 35 -53 21 -17 41 -28 44 -25 3 3 14 1 24 -6 17 -11 17 -11
-2 -5 -15 4 -17 3 -9 -5 6 -6 26 -13 45 -15 30 -3 32 -2 12 7 -42 20 -22 49
29 44 16 -2 25 2 25 11 0 8 -6 12 -14 9 -8 -4 -13 3 -14 17 0 21 -1 21 -9 2
-7 -18 -9 -18 -15 -3 -4 9 -4 22 -1 27 9 13 -31 34 -47 24 -8 -5 -2 -10 18
-15 l30 -7 -30 2 c-23 2 -29 6 -27 21 2 11 -1 15 -7 11 -6 -3 -25 1 -43 9 -35
18 -64 21 -73 6z m95 -36 c0 -2 -9 0 -19 6 -27 14 -30 13 -24 -10 4 -14 12
-19 32 -16 17 2 28 -2 28 -10 0 -7 -7 -10 -15 -6 -10 3 -13 1 -8 -6 10 -17
-12 -24 -36 -11 -14 8 -18 14 -10 17 6 2 10 7 8 11 -3 4 -7 19 -10 34 -5 27
-4 27 25 12 16 -9 29 -18 29 -21z m15 -74 c-3 -5 -12 -10 -18 -10 -7 0 -6 4 3
10 19 12 23 12 15 0z"/>
<path d="M5232 11423 c-6 -2 -10 -9 -6 -14 8 -14 21 -11 21 6 0 8 -1 15 -1 14
-1 0 -7 -3 -14 -6z"/>
<path d="M5170 11429 c0 -5 5 -7 10 -4 6 3 10 8 10 11 0 2 -4 4 -10 4 -5 0
-10 -5 -10 -11z"/>
<path d="M6875 11393 c-66 -19 -235 -67 -375 -108 -357 -102 -389 -115 -353
-142 15 -11 12 -13 -18 -15 -19 -1 -61 -1 -94 -1 -33 1 -54 -1 -47 -4 19 -7
14 -21 -8 -25 -12 -2 -20 -7 -20 -12 3 -16 -24 -23 -72 -18 -32 3 -48 9 -48
18 0 8 -4 14 -10 14 -5 0 -7 -7 -4 -15 4 -8 -1 -17 -9 -21 -9 -3 -13 -12 -10
-21 5 -12 1 -14 -18 -9 -22 6 -21 5 4 -9 30 -17 47 -13 47 11 0 29 25 7 28
-24 2 -23 -1 -32 -11 -32 -8 0 -20 -6 -26 -14 -10 -11 0 -23 49 -61 l61 -47
-20 -22 c-28 -30 -26 -37 7 -31 23 5 24 4 6 -4 -12 -5 -24 -21 -28 -36 -4 -16
-11 -23 -18 -19 -7 4 -8 3 -4 -4 4 -7 1 -12 -8 -12 -8 0 -13 8 -11 18 1 9 10
16 19 16 9 -1 16 5 16 13 0 14 -3 14 -22 1 -13 -9 -22 -19 -21 -24 1 -5 -3
-14 -8 -20 -6 -7 2 -11 26 -11 19 0 32 4 29 9 -9 13 6 9 22 -7 14 -13 13 -16
-8 -24 -41 -15 -110 -22 -103 -11 3 6 11 8 16 5 10 -7 13 8 3 18 -6 6 -75 -66
-169 -177 -22 -27 -49 -57 -60 -67 -17 -17 -18 -22 -6 -42 l14 -22 -24 20 -23
20 18 -29 c10 -16 13 -25 6 -21 -9 5 -10 1 -5 -15 5 -16 4 -20 -5 -15 -6 4
-10 16 -7 26 7 27 -9 23 -44 -10 -30 -29 -49 -81 -29 -81 5 0 10 -5 10 -11 0
-8 -5 -7 -15 1 -13 11 -18 10 -31 -6 -15 -19 -15 -19 -10 1 5 14 0 11 -18 -10
-13 -16 -33 -41 -45 -54 -11 -13 -18 -28 -15 -33 3 -4 2 -8 -3 -7 -22 4 -34
-3 -31 -18 2 -10 -2 -18 -9 -18 -17 0 -53 -41 -45 -51 4 -4 2 -4 -4 -1 -6 4
-22 -6 -36 -21 -131 -146 -271 -298 -278 -300 -5 -2 -137 54 -294 125 l-286
128 163 52 c89 29 168 53 175 53 6 0 12 5 12 10 0 6 -6 10 -12 10 -7 0 -76 22
-152 49 l-139 48 239 78 c131 42 242 80 247 84 4 4 -81 139 -190 300 l-196
292 -71 36 c-39 20 -219 114 -399 210 l-329 174 -236 -79 -237 -79 -17 -63
c-10 -35 -16 -65 -15 -66 1 -1 61 21 132 47 203 77 355 129 355 123 0 -3 -79
-90 -175 -194 -96 -103 -175 -191 -175 -194 0 -13 27 -4 168 54 79 34 146 59
147 58 2 -2 -46 -77 -106 -168 -60 -90 -109 -170 -109 -177 0 -25 447 -1392
459 -1405 4 -4 189 53 411 127 222 74 406 135 408 135 3 0 -77 -84 -176 -187
-98 -104 -220 -233 -271 -288 -89 -97 -92 -103 -125 -205 -19 -58 -46 -145
-61 -195 -15 -49 -62 -200 -105 -335 -43 -135 -105 -327 -137 -427 l-58 -181
-165 -124 c-91 -68 -280 -211 -420 -319 -140 -107 -317 -242 -393 -299 -76
-56 -136 -104 -134 -106 3 -4 522 68 727 100 52 9 96 13 98 11 3 -2 -14 -55
-36 -117 -22 -62 -64 -178 -93 -258 -79 -221 -109 -312 -105 -319 2 -3 43 -33
91 -66 47 -33 118 -83 158 -111 225 -160 741 -514 744 -511 2 2 -32 87 -75
188 -44 101 -91 219 -106 263 l-28 79 135 201 c75 110 171 254 215 318 44 65
163 239 263 388 100 149 194 279 208 289 14 10 145 79 291 154 l265 136 53
-14 c30 -8 102 -24 160 -36 120 -25 109 -16 188 -149 l51 -85 -70 -135 c-75
-144 -101 -186 -277 -460 -62 -96 -168 -263 -236 -372 -143 -226 -136 -195
-104 -443 l20 -157 70 -136 c63 -125 144 -274 229 -424 18 -32 29 -58 24 -58
-6 0 -104 24 -219 54 -366 95 -677 177 -749 197 -38 10 -75 19 -82 19 -15 0
65 -76 287 -275 85 -77 232 -209 325 -295 142 -131 177 -158 210 -164 38 -7
92 -18 475 -101 622 -134 534 -106 980 -322 107 -52 324 -158 483 -234 l287
-139 438 0 438 0 154 76 c85 42 352 170 593 285 470 225 440 214 772 284 88
19 243 53 345 75 102 23 235 51 297 64 l111 23 324 295 c177 162 357 327 398
366 l75 71 -150 -40 c-82 -21 -217 -57 -300 -78 -82 -22 -252 -67 -376 -100
-125 -34 -230 -61 -233 -61 -13 0 -4 24 38 98 24 42 94 175 156 295 l112 218
24 152 c39 248 42 232 -83 431 -59 94 -152 241 -207 326 -54 85 -124 196 -154
245 -30 50 -64 101 -77 115 -13 14 -53 91 -90 171 l-66 145 58 99 c32 54 65
101 73 106 8 4 83 21 167 38 l152 32 274 -141 c151 -78 284 -151 295 -163 19
-21 178 -255 610 -900 l185 -277 -11 -50 c-6 -27 -52 -147 -102 -266 -50 -119
-89 -218 -86 -221 2 -2 87 53 188 123 100 70 233 162 293 204 201 138 515 361
515 365 0 2 -30 86 -66 187 -121 337 -174 491 -169 497 6 5 147 -13 465 -61
290 -43 351 -51 356 -45 3 2 -48 44 -112 93 -65 49 -187 143 -273 210 -86 66
-284 216 -441 333 -224 166 -288 219 -297 244 -7 18 -40 120 -73 227 -34 107
-88 276 -120 375 -32 99 -77 241 -100 315 -23 74 -55 175 -72 224 -37 104 -48
117 -377 450 -113 115 -197 206 -186 203 11 -3 166 -55 345 -115 349 -117 478
-157 484 -151 3 4 105 312 360 1097 53 162 96 299 96 305 0 12 -99 166 -174
270 -27 37 -47 69 -45 71 2 2 71 -25 153 -61 82 -35 151 -62 154 -59 7 7 -40
63 -206 246 -77 85 -139 156 -138 158 2 1 21 -4 42 -12 77 -30 437 -156 444
-156 5 0 1 28 -8 62 l-17 62 -235 79 -235 79 -265 -139 c-146 -76 -329 -172
-406 -213 l-142 -75 -186 -282 c-102 -155 -189 -288 -191 -295 -4 -10 63 -36
235 -93 132 -43 237 -82 232 -86 -4 -3 -65 -26 -137 -49 -124 -41 -167 -60
-134 -60 33 0 331 -102 323 -110 -14 -14 -546 -250 -564 -250 -9 0 -66 58
-215 225 -115 127 -135 146 -145 140 -4 -3 -7 3 -6 13 0 9 -5 16 -12 14 -8 -1
-11 1 -8 6 3 5 -6 20 -21 33 -14 13 -22 17 -18 9 18 -30 12 -46 -16 -46 -19 0
-25 4 -22 14 5 11 7 11 14 1 4 -8 11 -10 15 -6 4 4 -1 14 -12 21 -19 15 -19
15 1 30 20 15 19 15 -3 9 -17 -4 -22 -11 -19 -24 7 -25 -19 -25 -32 -1 -7 13
-6 23 2 32 10 10 8 12 -8 6 -16 -6 -18 -5 -7 5 23 24 12 32 -13 9 -14 -13 -28
-20 -32 -17 -3 4 -1 7 5 7 6 0 9 7 5 17 -5 12 -3 14 7 8 10 -6 12 -4 7 8 -3
10 -4 24 -1 32 5 13 9 13 23 3 14 -10 -14 22 -79 91 -8 9 -57 67 -109 128 -51
62 -98 111 -104 110 -6 -1 -11 3 -12 8 0 6 -5 17 -12 25 -98 121 -128 156
-135 158 -25 11 6 45 85 95 15 9 25 22 22 27 -4 6 1 17 9 26 9 9 14 20 11 25
-4 5 0 9 7 9 10 0 10 2 -1 9 -9 6 -10 11 -2 15 15 10 14 29 -1 23 -7 -2 -14
-12 -14 -23 -1 -10 -2 -25 -3 -31 -2 -26 -18 -12 -19 17 0 17 4 30 9 30 5 0 9
14 9 30 0 17 -4 30 -10 30 -5 0 -10 -9 -10 -20 0 -17 -7 -20 -47 -20 -51 0
-59 4 -83 34 -14 18 -13 19 15 12 27 -7 28 -6 11 7 -10 7 -29 12 -41 9 -12 -2
-46 3 -75 12 -64 19 -76 19 -35 1 l30 -13 -37 1 c-21 0 -34 4 -28 7 33 21 -32
43 -550 190 -342 96 -296 90 -622 86 -199 -2 -292 -7 -297 -14 -4 -7 -21 -9
-46 -5 l-40 7 30 7 c17 4 -25 7 -92 7 -68 -1 -123 -5 -123 -9 0 -5 -7 -9 -15
-9 -8 0 -15 4 -15 10 0 6 -181 8 -500 6 -457 -2 -501 -4 -519 -20 -12 -11 -21
-14 -26 -7 -3 6 -1 11 4 11 6 0 11 4 11 8 0 18 -82 7 -195 -25z m505 15 c0 -5
-66 -8 -147 -8 -82 0 -143 4 -136 8 15 9 283 9 283 0z m1365 2 c19 -5 6 -6
-35 -3 -36 3 -67 7 -69 9 -8 7 73 2 104 -6z m-692 -7 c-7 -2 -19 -2 -25 0 -7
3 -2 5 12 5 14 0 19 -2 13 -5z m170 0 c-13 -2 -33 -2 -45 0 -13 2 -3 4 22 4
25 0 35 -2 23 -4z m75 0 c-10 -2 -26 -2 -35 0 -10 3 -2 5 17 5 19 0 27 -2 18
-5z m245 0 c-13 -2 -33 -2 -45 0 -13 2 -3 4 22 4 25 0 35 -2 23 -4z m-1438
-23 c3 -5 -1 -10 -10 -10 -9 0 -13 5 -10 10 3 6 8 10 10 10 2 0 7 -4 10 -10z
m328 3 c-7 -2 -21 -2 -30 0 -10 3 -4 5 12 5 17 0 24 -2 18 -5z m200 0 c-7 -2
-19 -2 -25 0 -7 3 -2 5 12 5 14 0 19 -2 13 -5z m47 -8 c0 -8 -4 -15 -10 -15
-5 0 -7 7 -4 15 4 8 8 15 10 15 2 0 4 -7 4 -15z m943 8 c-13 -2 -33 -2 -45 0
-13 2 -3 4 22 4 25 0 35 -2 23 -4z m85 0 c-10 -2 -28 -2 -40 0 -13 2 -5 4 17
4 22 1 32 -1 23 -4z m-1312 -28 c-23 -17 -36 -19 -36 -6 0 5 8 12 18 14 32 9
37 6 18 -8z m104 -5 c0 -5 -4 -10 -9 -10 -6 0 -13 5 -16 10 -3 6 1 10 9 10 9
0 16 -4 16 -10z m928 -26 c14 -15 14 -16 -3 -13 -10 2 -20 10 -23 17 -5 17 6
15 26 -4z m-31 -38 c-4 -11 -1 -13 10 -9 13 5 13 3 4 -15 -6 -11 -12 -31 -12
-44 -1 -20 -2 -20 -6 -3 -12 55 -52 87 -66 53 -3 -7 -6 -3 -6 10 -1 19 4 22
40 22 32 0 40 -3 36 -14z m-337 -10 c0 -3 -4 -8 -10 -11 -5 -3 -10 -1 -10 4 0
6 5 11 10 11 6 0 10 -2 10 -4z m177 -38 c-3 -8 -6 -5 -6 6 -1 11 2 17 5 13 3
-3 4 -12 1 -19z m-542 2 c3 -5 1 -10 -4 -10 -6 0 -11 5 -11 10 0 6 2 10 4 10
3 0 8 -4 11 -10z m-65 -36 c0 -2 -7 -4 -15 -4 -8 0 -15 4 -15 10 0 5 7 7 15 4
8 -4 15 -8 15 -10z m2220 -43 c0 -6 -4 -12 -8 -15 -5 -3 -9 1 -9 9 0 8 4 15 9
15 4 0 8 -4 8 -9z m-1815 -31 c8 -13 75 -13 75 1 0 5 5 7 10 4 24 -15 10 -36
-22 -34 -18 1 -40 -1 -49 -5 -10 -5 -27 1 -44 16 l-27 23 26 3 c14 1 28 -3 31
-8z m-5 -130 c0 -11 -7 -20 -15 -20 -8 0 -15 9 -15 20 0 11 7 20 15 20 8 0 15
-9 15 -20z m-66 -6 c22 -8 8 -34 -19 -34 -17 0 -25 -7 -28 -22 -3 -21 -4 -21
-12 -4 -5 12 -3 21 5 26 11 7 11 11 1 24 -12 14 -10 16 12 16 14 0 32 -3 41
-6z m-2107 -51 c0 -9 -4 -10 -14 -2 -7 6 -13 12 -13 14 0 1 6 2 13 2 8 0 14
-6 14 -14z m3843 2 c0 -8 -4 -15 -10 -15 -5 0 -10 7 -10 15 0 8 5 15 10 15 6
0 10 -7 10 -15z m-1595 -5 c3 -5 -1 -10 -9 -10 -9 0 -16 5 -16 10 0 6 4 10 9
10 6 0 13 -4 16 -10z m-2205 -4 c0 -2 -7 -7 -16 -10 -8 -3 -12 -2 -9 4 6 10
25 14 25 6z m2180 -27 c0 -14 -77 -11 -83 4 -3 9 7 11 39 8 24 -1 44 -7 44
-12z m2066 -185 c1 -8 -4 -14 -12 -14 -9 0 -12 5 -8 12 5 8 2 9 -9 5 -9 -3
-19 -2 -22 4 -4 5 -3 9 2 8 20 -3 34 2 28 11 -4 6 -10 8 -15 5 -11 -7 -27 16
-27 39 0 15 7 10 31 -19 17 -21 31 -44 32 -51z m-4176 26 c0 -17 -21 -21 -35
-6 -11 11 -12 15 -2 19 15 5 37 -2 37 -13z m50 -34 c0 -3 -4 -8 -10 -11 -5 -3
-10 -1 -10 4 0 6 5 11 10 11 6 0 10 -2 10 -4z m120 -206 c0 -5 -7 -10 -16 -10
-8 0 -12 5 -9 10 3 6 10 10 16 10 5 0 9 -4 9 -10z m4320 -140 c6 -11 8 -20 6
-20 -3 0 -10 9 -16 20 -6 11 -8 20 -6 20 3 0 10 -9 16 -20z m-4910 -35 c14
-19 14 -19 -2 -6 -10 7 -18 18 -18 24 0 6 1 8 3 6 1 -2 9 -13 17 -24z m4950
-1 c0 -8 -19 -13 -24 -6 -3 5 1 9 9 9 8 0 15 -2 15 -3z m-5016 -69 c-5 -11 -2
-13 10 -9 9 3 16 2 16 -4 0 -6 -8 -9 -17 -7 -10 2 -22 4 -27 4 -5 1 -3 8 4 16
16 19 21 19 14 0z m-37 -10 c0 -8 -7 -15 -14 -15 -10 0 -12 -7 -8 -22 4 -16 3
-19 -3 -9 -8 11 -10 11 -14 0 -3 -8 -8 -12 -11 -9 -5 5 39 70 47 70 1 0 3 -7
3 -15z m5040 -57 c-3 -8 -6 -5 -6 6 -1 11 2 17 5 13 3 -3 4 -12 1 -19z m-5067
-12 c0 -3 -4 -8 -10 -11 -5 -3 -10 -1 -10 4 0 6 5 11 10 11 6 0 10 -2 10 -4z
m-145 -174 c-3 -3 -11 0 -18 7 -9 10 -8 11 6 5 10 -3 15 -9 12 -12z m660 -42
c3 -5 1 -10 -4 -10 -6 0 -11 5 -11 10 0 6 2 10 4 10 3 0 8 -4 11 -10z m-768
-212 c-3 -8 -6 -5 -6 6 -1 11 2 17 5 13 3 -3 4 -12 1 -19z m26 -20 c4 -28 2
-38 -8 -38 -7 0 -15 -3 -18 -7 -2 -5 -2 -1 0 7 3 8 7 30 10 48 7 39 8 38 16
-10z m5634 0 c-3 -8 -6 -5 -6 6 -1 11 2 17 5 13 3 -3 4 -12 1 -19z m78 -258
c3 -5 1 -10 -4 -10 -6 0 -11 5 -11 10 0 6 2 10 4 10 3 0 8 -4 11 -10z m-5798
-42 c-3 -8 -6 -5 -6 6 -1 11 2 17 5 13 3 -3 4 -12 1 -19z m4000 -10 c-3 -8 -6
-5 -6 6 -1 11 2 17 5 13 3 -3 4 -12 1 -19z m1810 -40 c-3 -7 -5 -2 -5 12 0 14
2 19 5 13 2 -7 2 -19 0 -25z m-4010 -100 c-3 -8 -6 -5 -6 6 -1 11 2 17 5 13 3
-3 4 -12 1 -19z m4072 -188 c0 -10 -3 -8 -9 5 -12 27 -12 43 0 25 5 -8 9 -22
9 -30z m-4739 -40 c0 -5 -5 -10 -11 -10 -5 0 -7 5 -4 10 3 6 8 10 11 10 2 0 4
-4 4 -10z m2711 -173 c-10 -9 -11 -8 -5 6 3 10 9 15 12 12 3 -3 0 -11 -7 -18z
m-2486 -28 c15 -14 -7 -10 -35 7 l-25 15 25 -7 c14 -3 29 -10 35 -15z m76 11
c26 -14 24 -30 -3 -30 -19 0 -20 -2 -8 -10 13 -9 13 -10 0 -10 -18 0 15 -18
95 -50 33 -14 66 -23 73 -22 6 2 12 -3 12 -9 0 -7 3 -10 6 -6 4 3 14 -1 23
-10 15 -15 16 -15 19 0 2 9 9 14 18 10 10 -3 14 2 15 18 0 13 3 18 6 12 3 -8
14 -11 29 -7 20 5 24 2 24 -15 0 -21 6 -24 45 -23 17 1 17 0 2 -4 -9 -3 -14
-10 -11 -16 4 -6 3 -9 -2 -5 -5 3 -18 -1 -29 -9 -18 -13 -17 -14 15 -8 25 4
31 3 21 -4 -11 -8 9 -21 83 -57 53 -25 101 -43 106 -40 6 4 10 3 9 -2 -3 -19
2 -27 10 -15 7 11 9 10 14 -3 4 -9 3 -13 -3 -10 -6 3 -10 2 -10 -4 0 -19 23
-24 32 -7 5 9 14 16 21 16 8 0 6 -4 -3 -11 -11 -8 -12 -12 -2 -16 6 -2 12 -14
12 -26 0 -20 0 -20 -16 -1 -14 18 -15 18 -4 -3 6 -13 16 -23 23 -23 7 0 13
-11 13 -25 1 -14 10 -38 20 -53 10 -15 19 -29 19 -32 5 -21 30 -58 37 -54 5 3
4 12 -3 20 -9 11 -9 17 1 29 6 8 9 18 6 23 -3 5 1 9 7 9 10 0 16 -40 8 -54 0
-2 -1 -6 -2 -10 -1 -5 -5 -16 -10 -25 -5 -10 -5 -19 0 -22 5 -4 11 -3 14 1 2
5 2 2 0 -6 -2 -8 13 -46 33 -84 36 -69 36 -72 24 -121 -6 -28 -22 -97 -35
-154 -12 -57 -24 -104 -26 -106 -11 -9 -288 -106 -302 -106 -22 0 -170 87
-277 163 -47 33 -143 117 -213 186 -146 144 -121 92 -237 490 -57 194 -61 215
-47 226 9 7 13 16 9 20 -4 5 1 5 11 2 20 -8 110 31 102 43 -3 5 -1 12 5 15 6
4 9 1 8 -6 -2 -6 3 -14 11 -17 9 -3 11 0 6 7 -4 8 -2 12 6 10 35 -4 51 1 45
17 -4 10 -2 13 7 7 24 -15 77 -31 70 -20 -3 5 0 7 8 5 8 -3 13 -11 12 -17 -2
-6 2 -11 8 -11 6 0 9 9 6 20 -4 17 -1 19 21 15 26 -6 26 -5 -3 9 -16 8 -24 15
-17 15 7 1 22 -4 33 -9z m2563 -26 c4 -9 -1 -28 -11 -43 -10 -15 -18 -21 -21
-13 -2 6 -10 12 -18 12 -8 0 -14 4 -14 9 0 5 -10 12 -22 16 l-23 8 23 4 c12 2
22 9 22 14 0 16 57 10 64 -7z m489 4 c-2 -5 5 -8 16 -8 11 0 23 -4 26 -10 3
-5 14 -10 24 -10 9 0 37 -9 60 -21 24 -11 49 -18 57 -15 8 3 14 1 14 -4 0 -6
7 -10 15 -10 8 0 15 -6 15 -12 0 -7 -26 -101 -58 -208 -32 -107 -70 -233 -83
-280 l-24 -84 -115 -116 c-63 -64 -142 -136 -175 -161 -104 -80 -313 -209
-337 -209 -6 0 -75 23 -154 52 l-143 52 -36 147 -37 147 42 89 c45 93 46 97
35 128 -4 13 -4 16 2 7 7 -9 14 -7 29 10 29 33 56 78 47 78 -5 0 -3 4 2 8 17
12 49 65 34 56 -8 -4 5 14 28 40 24 27 40 53 36 59 -3 6 -1 7 5 3 6 -4 35 4
64 17 145 67 152 70 133 77 -17 6 -17 7 -2 13 9 3 19 2 22 -3 4 -6 12 -10 18
-10 7 0 4 5 -6 11 -10 6 -14 15 -10 22 4 7 -1 6 -10 -2 -10 -8 -20 -11 -24 -7
-3 3 -1 6 6 6 7 0 9 5 6 10 -7 11 0 12 33 3 15 -4 19 -8 12 -13 -8 -5 -7 -9 5
-13 9 -4 13 -3 10 3 -3 6 -1 10 6 10 7 0 4 7 -7 15 -18 14 -18 14 9 15 15 0
30 7 33 15 4 8 10 12 16 9 5 -3 5 -11 -2 -19 -15 -18 4 -29 27 -16 10 6 57 27
105 47 52 21 85 41 81 47 -3 6 -1 7 6 3 14 -9 103 23 95 35 -2 4 9 7 25 6 16
-1 27 -5 24 -9z m-70 -5 c-7 -2 -21 -2 -30 0 -10 3 -4 5 12 5 17 0 24 -2 18
-5z m-2374 -143 c0 -10 -3 -8 -9 5 -12 27 -12 43 0 25 5 -8 9 -22 9 -30z
m1745 -153 c-3 -9 -10 -14 -15 -11 -5 3 -9 -2 -9 -10 0 -8 -4 -17 -10 -21 -5
-3 -5 7 1 25 6 17 16 27 22 23 7 -4 8 0 3 13 -5 14 -4 16 4 8 6 -6 8 -18 4
-27z m-96 -18 c-3 -8 -7 -3 -11 10 -4 17 -3 21 5 13 5 -5 8 -16 6 -23z m46 -4
c-7 -17 -20 -20 -28 -6 -4 5 0 12 6 14 23 9 28 7 22 -8z m-1663 -26 c-9 -22
-10 -22 -10 -3 -1 11 2 24 6 27 12 12 14 0 4 -24z m1579 -6 c-11 -17 -11 -17
-6 0 3 10 6 24 7 30 0 9 2 9 5 0 3 -7 0 -20 -6 -30z m61 -30 c13 -16 12 -17
-3 -4 -10 7 -18 15 -18 17 0 8 8 3 21 -13z m-88 -51 c-8 -5 -9 -13 -3 -22 11
-17 13 -37 3 -27 -3 4 -12 2 -18 -3 -9 -8 -11 -3 -7 17 5 31 22 57 31 48 3 -3
0 -9 -6 -13z m30 -25 c-3 -5 0 -12 6 -16 8 -5 7 -13 -4 -27 -14 -19 -14 -19
-15 3 0 12 -2 28 -5 36 -4 8 0 14 9 14 8 0 12 -5 9 -10z m-2198 -862 c17 -16
25 -35 25 -60 0 -25 -8 -44 -25 -60 -53 -54 -145 -16 -145 58 0 76 93 115 145
62z m2971 10 c34 -23 48 -68 32 -102 -38 -80 -162 -57 -162 30 0 70 75 111
130 72z m-2808 -17 c27 -27 1 -78 -38 -78 -29 0 -54 43 -40 69 12 24 58 29 78
9z m2612 -2 c15 -19 9 -56 -11 -69 -23 -14 -67 0 -74 24 -14 43 56 79 85 45z
m-1271 -142 c36 -21 65 -33 73 -28 7 4 10 4 6 -1 -4 -4 52 -41 125 -82 72 -41
179 -101 235 -134 57 -32 108 -56 113 -53 5 3 9 1 9 -4 0 -4 28 -24 61 -43 70
-39 143 -123 372 -429 22 -30 89 -116 147 -190 58 -74 204 -265 325 -424 l219
-289 -24 -66 c-39 -111 -247 -637 -269 -679 -23 -44 -44 -53 -261 -108 l-105
-27 -230 58 c-126 31 -347 91 -490 133 -143 41 -277 80 -297 85 -32 9 -38 16
-38 38 0 29 -7 26 214 91 l80 23 160 153 161 153 5 136 c4 116 3 140 -12 162
-9 14 -85 114 -170 221 l-153 194 -135 19 c-75 10 -166 16 -205 13 -69 -4
-249 -24 -293 -32 -21 -4 -106 -105 -268 -317 -96 -126 -89 -108 -86 -258 l3
-134 168 -159 169 -159 103 -27 c201 -53 189 -48 189 -79 0 -27 -4 -29 -107
-58 -60 -17 -196 -56 -303 -87 -323 -94 -637 -169 -676 -161 -81 15 -330 88
-336 98 -12 19 -243 603 -274 693 l-28 82 116 153 c133 175 280 367 452 590
66 85 154 199 195 254 41 55 112 145 158 199 67 80 80 102 73 117 -7 12 -6 20
2 25 7 4 8 3 4 -4 -4 -7 -2 -12 4 -12 6 0 8 -4 5 -10 -11 -17 6 -11 52 20 24
17 48 30 54 30 5 0 9 5 9 10 0 6 4 9 8 8 14 -5 102 44 96 53 -3 5 1 6 9 3 7
-2 28 9 45 27 17 17 41 33 54 34 38 4 39 5 33 14 -3 5 0 13 6 17 8 4 9 3 5 -4
-4 -7 -5 -12 -1 -12 13 0 165 94 165 102 0 5 4 7 9 4 5 -3 29 6 54 20 110 61
133 73 144 73 6 1 39 -15 72 -35z m-254 -42 c-3 -3 -11 0 -18 7 -9 10 -8 11 6
5 10 -3 15 -9 12 -12z m-639 -148 c-3 -9 -6 -25 -7 -37 0 -12 -3 -16 -6 -9 -2
6 -9 12 -15 12 -6 0 -8 -7 -4 -15 3 -8 1 -15 -4 -15 -15 0 -12 33 6 58 17 25
39 30 30 6z m364 12 c0 -2 -7 -7 -16 -10 -8 -3 -12 -2 -9 4 6 10 25 14 25 6z
m-205 -119 c-2 -22 -31 -47 -54 -47 -9 1 -1 9 17 18 18 10 30 21 26 25 -4 4
-13 2 -19 -3 -9 -8 -14 -5 -17 7 -4 14 2 18 22 19 20 1 26 -3 25 -19z m1555
-2353 c91 -19 170 -37 177 -39 8 -3 5 -25 -11 -77 l-22 -73 -239 -180 -240
-180 -554 -1 -554 0 -241 180 c-133 99 -242 181 -244 182 -8 5 -33 136 -28
141 3 4 79 23 168 44 l163 37 730 1 730 1 165 -36z"/>
<path d="M10090 10781 c0 -6 4 -13 10 -16 6 -3 7 1 4 9 -7 18 -14 21 -14 7z"/>
<path d="M6836 8706 c3 -8 12 -12 21 -9 12 5 12 7 1 14 -20 13 -28 11 -22 -5z"/>
<path d="M6800 8696 c0 -2 7 -7 16 -10 8 -3 12 -2 9 4 -6 10 -25 14 -25 6z"/>
<path d="M7257 8353 c-4 -3 -7 -11 -7 -17 0 -6 5 -5 12 2 6 6 9 14 7 17 -3 3
-9 2 -12 -2z"/>
<path d="M7554 7174 c-18 -14 -18 -15 4 -4 12 6 22 13 22 15 0 8 -5 6 -26 -11z"/>
<path d="M5604 11312 c13 -22 -50 -55 -77 -41 -14 8 -16 5 -13 -21 2 -16 -1
-30 -5 -30 -5 0 -9 5 -9 10 0 6 -5 10 -11 10 -5 0 -7 -5 -3 -11 4 -8 0 -9 -15
-4 -11 3 -21 4 -21 2 0 -8 188 -148 219 -163 17 -9 31 -19 31 -23 0 -5 10 -8
22 -7 16 1 25 12 35 42 8 23 22 45 31 48 9 3 32 17 51 31 32 23 33 25 10 23
-16 -2 -24 2 -24 12 0 8 6 14 13 12 8 -1 11 2 7 8 -3 5 -11 10 -17 10 -6 0
-46 18 -90 40 -44 22 -89 40 -100 40 -10 0 -16 5 -13 10 3 6 -1 10 -10 10 -9
0 -14 -4 -11 -8z m131 -262 c3 -5 1 -10 -4 -10 -6 0 -11 5 -11 10 0 6 2 10 4
10 3 0 8 -4 11 -10z"/>
<path d="M5568 11303 c7 -3 16 -2 19 1 4 3 -2 6 -13 5 -11 0 -14 -3 -6 -6z"/>
<path d="M10281 11269 c-75 -36 -140 -77 -97 -63 16 6 17 5 6 -16 -11 -20 -10
-25 6 -37 10 -7 22 -13 27 -13 4 0 5 -5 2 -10 -4 -6 -10 -8 -15 -5 -5 3 -11 1
-15 -4 -3 -6 4 -15 16 -22 17 -9 23 -8 30 2 6 10 9 10 9 2 0 -7 -8 -17 -17
-22 -10 -6 -13 -10 -8 -10 18 0 47 27 40 38 -3 6 -1 11 6 11 8 0 9 -10 5 -32
-5 -25 -4 -30 6 -20 7 7 17 12 22 12 6 0 5 -5 -2 -12 -30 -30 -6 -25 51 12 34
22 61 45 59 51 -1 6 2 8 7 4 6 -3 19 2 29 12 10 10 27 23 38 29 22 13 30 64
10 64 -8 0 -20 8 -27 17 -12 15 -12 16 4 10 11 -4 16 -3 12 3 -8 13 -42 13
-50 0 -4 -6 -11 -5 -20 3 -11 10 -9 14 13 23 24 11 22 12 -22 10 -33 -1 -73
-13 -125 -37z"/>
<path d="M10566 11271 c-5 -8 40 -9 47 -1 3 3 -6 6 -19 6 -13 1 -26 -1 -28 -5z"/>
<path d="M10520 11220 c0 -5 7 -7 15 -4 8 4 15 8 15 10 0 2 -7 4 -15 4 -8 0
-15 -4 -15 -10z"/>
<path d="M5920 11155 c19 -14 39 -25 44 -24 6 0 5 3 -2 6 -6 2 -9 10 -6 15 4
7 2 8 -5 4 -6 -4 -18 0 -27 8 -8 9 -20 16 -27 16 -6 0 4 -11 23 -25z"/>
<path d="M10085 11170 c-3 -6 1 -7 9 -4 18 7 21 14 7 14 -6 0 -13 -4 -16 -10z"/>
<path d="M5889 11152 c9 -7 10 -11 2 -15 -7 -4 -8 -5 0 -3 15 2 13 20 -3 24
-10 3 -10 2 1 -6z"/>
<path d="M6070 11149 c0 -5 -6 -7 -12 -3 -8 4 -8 2 1 -7 9 -10 15 -11 18 -3 2
7 14 10 26 7 18 -4 19 -3 7 6 -19 14 -40 14 -40 0z"/>
<path d="M5845 11140 c-3 -6 1 -7 9 -4 18 7 21 14 7 14 -6 0 -13 -4 -16 -10z"/>
<path d="M10224 11015 c-18 -14 -18 -15 3 -12 27 4 38 13 25 21 -5 3 -18 -1
-28 -9z"/>
<path d="M5810 10990 c0 -5 5 -10 11 -10 5 0 7 5 4 10 -3 6 -8 10 -11 10 -2 0
-4 -4 -4 -10z"/>
<path d="M5780 10986 c0 -2 8 -10 18 -17 15 -13 16 -12 3 4 -13 16 -21 21 -21
13z"/>
<path d="M10190 10975 c-7 -8 -8 -15 -2 -15 5 0 15 7 22 15 7 8 8 15 2 15 -5
0 -15 -7 -22 -15z"/>
<path d="M10500 10300 c0 -5 5 -10 11 -10 5 0 7 5 4 10 -3 6 -8 10 -11 10 -2
0 -4 -4 -4 -10z"/>
<path d="M10556 10261 c-4 -5 -2 -12 3 -15 5 -4 12 -2 15 3 4 5 2 12 -3 15 -5
4 -12 2 -15 -3z"/>
</g>
</svg>
